<svg width="14" height="18" viewBox="0 0 14 18" fill="none" xmlns="http://www.w3.org/2000/svg">
<path fill-rule="evenodd" clip-rule="evenodd" d="M12.8075 6.76333H11.7297V5.39665C11.7297 2.7591 9.47346 0.613327 6.70007 0.613327C3.92667 0.613327 1.67045 2.7591 1.67045 5.39665V6.76333H0.592669C0.394088 6.76333 0.233398 6.91615 0.233398 7.105V15.6467C0.233398 16.4004 0.877876 17.0133 1.67045 17.0133H11.7297C12.5223 17.0133 13.1667 16.4004 13.1667 15.6466V7.105C13.1667 6.91615 13.006 6.76333 12.8075 6.76333ZM7.77575 13.9006C7.78697 13.997 7.75437 14.0938 7.6863 14.1662C7.61823 14.2386 7.52069 14.28 7.41861 14.28H5.98156C5.87947 14.28 5.78193 14.2386 5.71386 14.1662C5.6458 14.0938 5.61316 13.9971 5.62441 13.9006L5.85105 11.9624C5.48302 11.7078 5.26305 11.3051 5.26305 10.8633C5.26305 10.1096 5.90753 9.49665 6.7001 9.49665C7.49267 9.49665 8.13715 10.1096 8.13715 10.8633C8.13715 11.3051 7.91718 11.7078 7.54915 11.9624L7.77575 13.9006ZM3.826 5.39665V6.76333H9.57413V5.39665C9.57413 3.88952 8.2848 2.66333 6.70007 2.66333C5.11533 2.66333 3.826 3.88952 3.826 5.39665Z" fill="white"/>
</svg>
