<svg width="66" height="9" viewBox="0 0 66 9" fill="none" xmlns="http://www.w3.org/2000/svg">
<path d="M5.46328 0.290234H6.42832L3.64922 8H2.76328L0 0.290234H0.949219L2.72109 5.27891C2.925 5.85195 3.08672 6.40918 3.20625 6.95059C3.33281 6.38105 3.49805 5.81328 3.70195 5.24727L5.46328 0.290234ZM8.23711 8H7.36172V2.22031H8.23711V8ZM7.28789 0.654101C7.28789 0.453711 7.33711 0.307812 7.43555 0.216406C7.53398 0.121484 7.65703 0.0740233 7.80469 0.0740233C7.94531 0.0740233 8.0666 0.121484 8.16855 0.216406C8.27051 0.311328 8.32148 0.457226 8.32148 0.654101C8.32148 0.850976 8.27051 0.998633 8.16855 1.09707C8.0666 1.19199 7.94531 1.23945 7.80469 1.23945C7.65703 1.23945 7.53398 1.19199 7.43555 1.09707C7.33711 0.998633 7.28789 0.850976 7.28789 0.654101ZM12.535 8.10547C11.6807 8.10547 11.0057 7.84531 10.51 7.325C10.0178 6.80469 9.77168 6.08223 9.77168 5.15762C9.77168 4.22598 10.0002 3.48594 10.4572 2.9375C10.9178 2.38906 11.5348 2.11484 12.3082 2.11484C13.0324 2.11484 13.6055 2.35391 14.0273 2.83203C14.4492 3.30664 14.6602 3.93418 14.6602 4.71465V5.26836H10.6787C10.6963 5.94687 10.8668 6.46191 11.1902 6.81348C11.5172 7.16504 11.976 7.34082 12.5666 7.34082C13.1889 7.34082 13.8041 7.21074 14.4123 6.95059V7.73105C14.1029 7.86465 13.8094 7.95957 13.5316 8.01582C13.2574 8.07559 12.9252 8.10547 12.535 8.10547ZM12.2977 2.84785C11.8336 2.84785 11.4627 2.99902 11.185 3.30137C10.9107 3.60371 10.749 4.02207 10.6998 4.55645H13.7215C13.7215 4.00449 13.5984 3.58262 13.3523 3.29082C13.1063 2.99551 12.7547 2.84785 12.2977 2.84785ZM20.8775 8L19.8176 4.60918C19.7508 4.40176 19.626 3.93066 19.4432 3.1959H19.401C19.2604 3.81113 19.1373 4.28574 19.0318 4.61973L17.9402 8H16.9277L15.351 2.22031H16.2686C16.6412 3.67227 16.9242 4.77793 17.1176 5.5373C17.3145 6.29668 17.427 6.8082 17.4551 7.07187H17.4973C17.5359 6.87148 17.5975 6.61309 17.6818 6.29668C17.7697 5.97676 17.8453 5.72363 17.9086 5.5373L18.9686 2.22031H19.9178L20.9514 5.5373C21.1482 6.14199 21.2818 6.65 21.3521 7.06133H21.3943C21.4084 6.93477 21.4453 6.73965 21.5051 6.47598C21.5684 6.2123 21.9357 4.79375 22.6072 2.22031H23.5143L21.9164 8H20.8775ZM34.7361 8V4.24004C34.7361 3.77949 34.6377 3.43496 34.4408 3.20645C34.2439 2.97441 33.9381 2.8584 33.5232 2.8584C32.9783 2.8584 32.5758 3.01484 32.3156 3.32773C32.0555 3.64062 31.9254 4.12227 31.9254 4.77266V8H31.05V4.24004C31.05 3.77949 30.9516 3.43496 30.7547 3.20645C30.5578 2.97441 30.2502 2.8584 29.8318 2.8584C29.2834 2.8584 28.8809 3.02363 28.6242 3.3541C28.3711 3.68105 28.2445 4.21895 28.2445 4.96777V8H27.3691V2.22031H28.0811L28.2234 3.01133H28.2656C28.4309 2.73008 28.6629 2.51035 28.9617 2.35215C29.2641 2.19395 29.6016 2.11484 29.9742 2.11484C30.8777 2.11484 31.4684 2.4418 31.7461 3.0957H31.7883C31.9605 2.79336 32.2102 2.5543 32.5371 2.37852C32.8641 2.20273 33.2367 2.11484 33.6551 2.11484C34.309 2.11484 34.7977 2.28359 35.1211 2.62109C35.448 2.95508 35.6115 3.49121 35.6115 4.22949V8H34.7361ZM42.409 5.10488C42.409 6.04707 42.1717 6.78359 41.6971 7.31445C41.2225 7.8418 40.5668 8.10547 39.7301 8.10547C39.2133 8.10547 38.7545 7.98418 38.3537 7.7416C37.9529 7.49902 37.6436 7.15098 37.4256 6.69746C37.2076 6.24395 37.0986 5.71309 37.0986 5.10488C37.0986 4.1627 37.3342 3.42969 37.8053 2.90586C38.2764 2.37852 38.9303 2.11484 39.767 2.11484C40.5756 2.11484 41.2172 2.38379 41.6918 2.92168C42.1699 3.45957 42.409 4.1873 42.409 5.10488ZM38.0057 5.10488C38.0057 5.84316 38.1533 6.40566 38.4486 6.79238C38.7439 7.1791 39.1781 7.37246 39.7512 7.37246C40.3242 7.37246 40.7584 7.18086 41.0537 6.79766C41.3525 6.41094 41.502 5.84668 41.502 5.10488C41.502 4.37012 41.3525 3.81289 41.0537 3.4332C40.7584 3.05 40.3207 2.8584 39.7406 2.8584C39.1676 2.8584 38.7352 3.04648 38.4434 3.42266C38.1516 3.79883 38.0057 4.35957 38.0057 5.10488ZM46.5855 2.11484C46.8422 2.11484 47.0725 2.13594 47.2764 2.17812L47.1551 2.99023C46.916 2.9375 46.7051 2.91113 46.5223 2.91113C46.0547 2.91113 45.6539 3.10098 45.3199 3.48066C44.9895 3.86035 44.8242 4.3332 44.8242 4.89922V8H43.9488V2.22031H44.6713L44.7715 3.29082H44.8137C45.0281 2.91465 45.2865 2.62461 45.5889 2.4207C45.8912 2.2168 46.2234 2.11484 46.5855 2.11484ZM50.799 8.10547C49.9447 8.10547 49.2697 7.84531 48.774 7.325C48.2818 6.80469 48.0357 6.08223 48.0357 5.15762C48.0357 4.22598 48.2643 3.48594 48.7213 2.9375C49.1818 2.38906 49.7988 2.11484 50.5723 2.11484C51.2965 2.11484 51.8695 2.35391 52.2914 2.83203C52.7133 3.30664 52.9242 3.93418 52.9242 4.71465V5.26836H48.9428C48.9604 5.94687 49.1309 6.46191 49.4543 6.81348C49.7813 7.16504 50.24 7.34082 50.8307 7.34082C51.4529 7.34082 52.0682 7.21074 52.6764 6.95059V7.73105C52.367 7.86465 52.0734 7.95957 51.7957 8.01582C51.5215 8.07559 51.1893 8.10547 50.799 8.10547ZM50.5617 2.84785C50.0977 2.84785 49.7268 2.99902 49.449 3.30137C49.1748 3.60371 49.0131 4.02207 48.9639 4.55645H51.9855C51.9855 4.00449 51.8625 3.58262 51.6164 3.29082C51.3703 2.99551 51.0188 2.84785 50.5617 2.84785ZM65.9918 4.09766L63.7137 1.81953V3.70742H57.5332V4.48789H63.7137V6.37578L65.9918 4.09766Z" fill="#1CA78B"/>
</svg>
